<svg width="105" height="105" viewBox="0 0 105 105" fill="none" xmlns="http://www.w3.org/2000/svg">
<path d="M74.3748 54.0927H57.9399C56.9187 51.1695 54.1423 49.08 50.8635 49.08C50.6078 49.08 50.3603 49.0928 50.1174 49.1163L42.5459 36.6922C41.5395 35.0361 39.3715 34.5028 37.6967 35.5083C36.0333 36.5098 35.5031 38.6656 36.5095 40.3204L44.2443 53.0208C43.6831 54.0679 43.3593 55.2699 43.3593 56.5397C43.3593 60.6622 46.7212 64 50.8635 64C54.0101 64 56.7103 62.0655 57.8198 59.3247H74.3748C75.8304 59.3247 77 58.1529 77 56.706C77 55.2612 75.8304 54.0927 74.3748 54.0927Z" fill="#059669"/>
<path d="M104.982 52.7105C104.982 52.6397 105 52.5695 105 52.5034C105 23.5494 81.4504 0 52.5003 0C23.5496 0 0 23.5494 0 52.5034C0 81.4483 23.5496 105 52.5003 105C69.0325 105 83.7932 97.3008 93.4239 85.3067L77.37 69.2572C71.9789 77.2418 62.842 82.5096 52.5003 82.5096C35.9561 82.5096 22.4966 69.042 22.4966 52.5034C22.4966 35.9567 35.9561 22.4958 52.5003 22.4958C69.0325 22.4958 82.4974 35.9567 82.4974 52.5034C82.4974 52.5695 82.4906 52.6397 82.4906 52.7105H104.982Z" fill="#059669"/>
</svg>
